<?xml version="1.0" standalone="no"?>
<!DOCTYPE svg PUBLIC "-//W3C//DTD SVG 20010904//EN"
 "http://www.w3.org/TR/2001/REC-SVG-20010904/DTD/svg10.dtd">
<svg version="1.0" xmlns="http://www.w3.org/2000/svg"
 width="512.000000pt" height="512.000000pt" viewBox="0 0 512.000000 512.000000"
 preserveAspectRatio="xMidYMid meet">

<g transform="translate(0.000000,512.000000) scale(0.100000,-0.100000)"
fill="#000000" stroke="none">
<path d="M3124 4459 l-649 -649 323 0 322 0 0 -179 0 -179 -67 -15 c-38 -9
-96 -21 -130 -28 l-63 -12 0 -837 0 -837 78 -16 c42 -9 101 -22 130 -28 l52
-11 -2 -176 -3 -177 -557 -3 -558 -2 0 179 0 179 68 15 c37 8 95 21 130 27
l62 13 0 837 0 837 -107 22 c-60 12 -119 25 -133 28 l-25 6 30 -32 29 -32
-1021 -1022 -1022 -1022 14 -80 c34 -203 94 -371 191 -532 217 -359 576 -615
979 -698 163 -33 291 -36 1450 -33 1150 3 1150 3 1257 26 144 30 242 63 367
123 426 202 722 586 823 1066 l23 108 3 1150 c3 1158 0 1287 -33 1450 -83 404
-344 770 -701 981 -173 102 -335 157 -580 198 -29 5 -61 -26 -680 -645z"/>
</g>
</svg>
